<svg height="512" viewBox="0 0 64 64" width="512" xmlns="http://www.w3.org/2000/svg"><g id="flat"><path d="m32 29a4 4 0 0 0 -4-4h-18a4 4 0 0 0 -4 4v28a4 4 0 0 0 4 4h22z" fill="#92cdde"/><path d="m6 33h26v18h-26z" fill="#cdeef6"/><path d="m45.75 32.23a6 6 0 1 1 8.51-8.45z" fill="#cfdfe8"/><path d="m51 13-8 8a5.657 5.657 0 0 1 -8 0 5.657 5.657 0 0 1 0-8l8-8z" fill="#cdeef6"/><path d="m26 33h16v6h-16z" fill="#394d5c"/><path d="m40 42v-3h-12v3l-4 2v15a2 2 0 0 0 2 2h16a2 2 0 0 0 2-2v-15z" fill="#2d75bb"/><path d="m33 33h2v3h-2z" fill="#7d8d9c"/><path d="m37 33h2v3h-2z" fill="#7d8d9c"/><path d="m29 33h2v3h-2z" fill="#7d8d9c"/><path d="m11 21h16v4h-16z" fill="#50b3c9"/><path d="m9 15h20v6h-20z" fill="#394d5c"/><g fill="#7d8d9c"><path d="m12 15h2v3h-2z"/><path d="m16 15h2v3h-2z"/><path d="m20 15h2v3h-2z"/><path d="m24 15h2v3h-2z"/></g><path d="m20 40h-3v-3h-4v3h-3v4h3v3h4v-3h3z" fill="#da1c4b"/><g fill="#f4f4e6"><path d="m9 28h2v2h-2z"/><path d="m13 28h2v2h-2z"/><path d="m39 56h2v2h-2z"/><path d="m35 56h2v2h-2z"/></g><path d="m24 47h20v6h-20z" fill="#50b4f8"/><path d="m51 5a5.657 5.657 0 0 0 -8 0l-4 4 8 8 4-4a5.657 5.657 0 0 0 0-8z" fill="#8ec13f"/><path d="m44.707 10.707-1.414-1.414 2.293-2.293a2 2 0 0 1 2.828 0l1.293 1.293-1.414 1.414-1.293-1.293z" fill="#f4f4e6"/><circle cx="56" cy="17" fill="#cfdfe8" r="3"/><path d="m56 28a6 6 0 0 1 -10.25 4.23l8.51-8.45a5.939 5.939 0 0 1 1.74 4.22z" fill="#aabece"/></g></svg>